<svg xmlns="http://www.w3.org/2000/svg" viewBox="0 0 1024 1024" width="1024" height="1024" role="img" aria-label="plug silhouette">
<path fill-rule="evenodd" fill="#FABD2F" d="M253.78 257.10 L251.98 691.41 L261.71 684.38 L277.59 696.78 L301.57 693.30 L317.98 708.02 L329.74 741.67 L373.59 749.06 L386.53 766.90 L398.04 771.12 L404.77 762.85 L418.34 758.88 L448.93 775.66 L464.95 772.71 L470.02 767.19 L470.02 983.04 L553.98 983.04 L553.98 806.07 L570.80 802.23 L575.80 779.68 L590.40 775.52 L584.73 744.78 L608.49 704.83 L621.34 710.86 L624.80 729.47 L643.83 721.53 L643.29 706.54 L636.90 696.78 L645.46 693.11 L645.15 678.80 L682.74 640.48 L693.01 651.81 L713.54 643.95 L738.58 615.98 L756.47 605.04 L762.68 590.80 L765.64 556.11 L774.42 546.35 L778.86 515.79 L792.38 488.19 L792.47 460.55 L783.67 443.79 L802.74 434.36 L802.69 209.92 L704.41 246.35 L646.55 291.90 L627.71 289.45 L627.71 140.95 L618.37 38.91 L587.90 38.91 L578.56 140.95 L578.56 299.72 L551.48 309.87 L534.10 301.98 L521.68 289.69 L521.17 282.95 L512.52 283.16 L506.29 275.29 L501.03 285.00 L493.45 287.57 L474.03 272.09 L445.44 257.34 L445.44 140.95 L436.10 38.91 L405.63 38.91 L396.29 140.95 L396.29 252.06 Z"/>
</svg>